# xmcd
#
# Track frame offsets:
#	150
#	13796
#	29443
#	40343
#	60222
#	78298
#	97584
#	114235
#	130985
#	141713
#
# Disc length: 2030 seconds
#
# Revision: 2
# Processed by: cddbd v1.4PL0 Copyright (c) Steve Scherf et al.
# Submitted via: EasyCDDAExtractor 4.6.0.1
#
DISCID=7907ec0a
DTITLE=Rojo Fama Contra Fama - Los Singles
DYEAR=2003
DGENRE=Latin
TTITLE0=Monserrat Bustamante - Corazon bandido
TTITLE1=Mario Guerrero - Si no estas
TTITLE2=Clan Rojo - Divididos
TTITLE3=Carolina Soto - Clávame tu amor
TTITLE4=Daniela Castillo - Creo en ti
TTITLE5=Leandro Martínez - Si queres amar te enseñare
TTITLE6=Natalia Fairlie - Todo anda bien
TTITLE7=Miguel Garces - Nada es igual sin ti
TTITLE8=Rogelio Rojas y Clan Rojo - Nelson Maury anda al colegio
TTITLE9=Karaoke - Nelson Maury anda al colegio
EXTD=
EXTT0=
EXTT1=
EXTT2=
EXTT3=
EXTT4=
EXTT5=
EXTT6=
EXTT7=
EXTT8=
EXTT9=
PLAYORDER=
